<svg xmlns="http://www.w3.org/2000/svg" viewBox="0 0 292.31 111.11" role="img" aria-label="HAF">
  <path fill="currentColor" fill-rule="evenodd" d="M5.56,62.51C5.56,23.02 5.67,19.25 6.87,16.89C9.16,12.39 11.56,11.23 19.14,10.93L25.86,10.67L25.86,29.54L25.86,48.41L51.07,48.41C78.33,48.41 79.33,48.54 83.00,52.51L84.88,54.55L85.10,80.05L85.31,105.56L75.13,105.56L64.95,105.56L64.95,86.38L64.95,67.21L45.41,67.21L25.86,67.21L25.86,86.38L25.86,105.56L15.71,105.56L5.56,105.56L5.56,62.51ZM101.04,104.60C101.04,102.65 138.76,14.92 140.31,13.28C144.94,8.34 157.73,9.30 161.10,14.84C161.90,16.14 166.85,27.36 172.10,39.77C177.36,52.17 185.68,71.75 190.60,83.27C195.52,94.79 199.54,104.51 199.54,104.88C199.54,105.25 194.85,105.56 189.12,105.56L178.70,105.56L164.83,71.54C156.31,50.62 150.55,37.44 149.88,37.32C149.09,37.17 144.91,46.67 134.91,71.34L121.02,105.56L111.03,105.56C103.47,105.56 101.04,105.32 101.04,104.60ZM215.33,61.76C215.34,20.23 215.41,17.84 216.75,15.65C219.66,10.87 220.07,10.82 255.11,10.82L286.76,10.82L286.76,20.22L286.76,29.62L261.19,29.62L235.63,29.62L235.63,39.77L235.63,49.92L258.19,49.92L280.74,49.92L280.74,59.31L280.74,68.71L258.19,68.71L235.63,68.71L235.63,87.13L235.63,105.56L225.48,105.56L215.33,105.56L215.33,61.76Z"/>
  <path fill="#f18e00" fill-rule="evenodd" d="M71.90,41.24C69.74,39.72 63.88,31.49 61.98,27.28C58.13,18.81 61.77,9.67 70.15,6.71C74.44,5.19 76.67,5.27 80.67,7.09C88.38,10.59 91.47,17.82 88.66,25.78C86.35,32.35 78.22,42.40 75.22,42.40C74.31,42.40 72.81,41.88 71.90,41.24ZM77.70,23.27C78.89,21.84 78.42,18.31 76.91,17.36C74.98,16.15 71.81,17.36 71.27,19.51C70.36,23.11 75.39,26.05 77.70,23.27Z"/>
</svg>
