<svg xmlns="http://www.w3.org/2000/svg" viewBox="0 0 262.64 100.00" role="img" aria-label="HAF">
  <g transform="translate(0,0) scale(0.90001) translate(-0.00,-0.00)">
<path fill="var(--haf-badge-fill, #2f373e)" fill-rule="evenodd" d="M34.48,105.09C33.94,104.85 33.19,104.31 32.81,103.88C32.44,103.45 29.84,99.13 27.05,94.28C24.25,89.43 18.28,79.07 13.76,71.25C6.28,58.31 5.56,56.92 5.56,55.55C5.56,54.18 6.23,52.87 13.01,41.16C17.11,34.07 23.09,23.71 26.30,18.14C29.51,12.57 32.44,7.66 32.82,7.23C34.32,5.51 33.59,5.56 62.42,5.56C91.04,5.56 90.52,5.53 91.96,7.14C92.30,7.52 98.59,18.24 105.93,30.96C118.13,52.09 119.28,54.21 119.28,55.56C119.28,56.92 118.14,59.01 105.94,80.15C98.60,92.86 92.31,103.58 91.97,103.96C90.52,105.59 91.07,105.56 62.35,105.54C40.67,105.53 35.27,105.45 34.48,105.09ZM102.47,79.08C111.07,64.19 115.44,56.34 115.15,56.27C114.56,56.13 114.58,54.98 115.16,54.84C115.48,54.77 113.56,51.18 109.09,43.46C105.50,37.26 100.86,29.25 98.78,25.65C96.70,22.06 93.72,16.91 92.15,14.22L89.30,9.31L62.41,9.31L35.52,9.31L31.54,16.18C29.35,19.95 25.27,27.01 22.47,31.86C19.68,36.72 15.54,43.88 13.28,47.79C10.64,52.37 9.35,54.90 9.65,54.90C9.92,54.90 10.13,55.20 10.13,55.56C10.13,55.92 9.92,56.21 9.65,56.21C9.35,56.21 10.85,59.12 13.84,64.30C16.41,68.75 22.15,78.71 26.61,86.44C31.06,94.17 34.92,100.82 35.17,101.23L35.64,101.96L62.49,101.88L89.35,101.80L102.47,79.08ZM36.41,100.73C36.21,100.60 35.46,99.46 34.74,98.20C32.39,94.12 19.96,72.60 15.15,64.29C12.57,59.83 10.46,55.91 10.46,55.58C10.46,54.94 35.81,10.79 36.41,10.38C36.60,10.25 48.40,10.14 62.61,10.14L88.46,10.13L96.25,23.61C100.53,31.03 104.80,38.42 105.74,40.03C106.68,41.65 109.01,45.65 110.92,48.92C112.82,52.20 114.38,55.17 114.38,55.52C114.38,56.07 106.62,69.70 91.25,96.16L88.46,100.98L62.61,100.98C48.40,100.97 36.61,100.86 36.41,100.73ZM52.94,69.93L52.94,60.46L62.42,60.46L71.90,60.46L71.90,69.93L71.90,79.41L77.29,79.41L82.68,79.41L82.60,67.08L82.52,54.74L82.43,66.91L82.34,79.08L77.28,79.08L72.22,79.08L72.22,69.61L72.22,60.13L62.42,60.13L52.61,60.13L52.61,69.61L52.61,79.08L47.55,79.08L42.49,79.08L42.40,57.60L42.32,36.11L42.24,57.76L42.16,79.41L47.55,79.41L52.94,79.41L52.94,69.93ZM81.70,52.83C81.70,52.78 81.29,52.37 80.80,51.94L79.90,51.14L80.69,52.04C81.43,52.88 81.70,53.09 81.70,52.83ZM53.01,41.18L52.92,31.70L49.75,31.77L46.57,31.83L49.59,31.94L52.61,32.05L52.61,41.35C52.61,46.47 52.72,50.65 52.86,50.65C52.99,50.65 53.06,46.39 53.01,41.18ZM78.69,47.27C80.93,45.62 84.01,40.90 84.62,38.19C85.23,35.42 83.84,31.99 81.46,30.43C77.25,27.67 71.45,29.76 70.06,34.55C69.47,36.60 69.62,37.93 70.75,40.43C72.39,44.06 75.78,47.99 77.31,48.03C77.50,48.03 78.12,47.70 78.69,47.27ZM76.22,38.05C74.87,37.11 75.68,34.97 77.38,34.97C78.08,34.97 79.08,36.07 79.08,36.84C79.08,37.38 77.90,38.56 77.36,38.56C77.13,38.56 76.62,38.33 76.22,38.05Z"/>
<path fill="var(--haf-badge-mark, #ffffff)" fill-rule="evenodd" d="M42.48,57.48C42.48,33.61 42.41,34.46 44.57,32.92C45.44,32.30 46.10,32.17 49.10,32.08L52.61,31.97L52.61,41.30L52.61,50.63L65.83,50.72C78.59,50.81 79.07,50.84 79.94,51.49C80.44,51.86 81.15,52.57 81.52,53.07C82.16,53.94 82.19,54.43 82.28,66.53L82.38,79.08L77.30,79.08L72.22,79.08L72.22,69.61L72.22,60.13L62.42,60.13L52.61,60.13L52.61,69.61L52.61,79.08L47.55,79.08L42.48,79.08L42.48,57.48ZM9.15,55.56C9.15,55.19 9.37,54.90 9.64,54.90C9.91,54.90 10.13,55.19 10.13,55.56C10.13,55.92 9.91,56.21 9.64,56.21C9.37,56.21 9.15,55.92 9.15,55.56ZM114.71,55.56C114.71,55.19 114.92,54.90 115.20,54.90C115.47,54.90 115.69,55.19 115.69,55.56C115.69,55.92 115.47,56.21 115.20,56.21C114.92,56.21 114.71,55.92 114.71,55.56Z"/>
<path fill="#f18e00" fill-rule="evenodd" d="M74.39,45.68C71.79,42.95 69.93,39.16 69.94,36.62C69.96,34.17 70.99,32.21 73.03,30.74C74.36,29.79 74.96,29.58 76.69,29.47C82.36,29.11 86.23,34.47 84.03,39.61C83.03,41.95 80.56,45.57 79.21,46.68C77.36,48.20 76.65,48.06 74.39,45.68ZM78.57,38.05C79.18,37.44 79.25,35.91 78.69,35.36C78.48,35.14 77.84,34.97 77.29,34.97C75.99,34.97 75.49,35.48 75.49,36.81C75.49,38.42 77.42,39.20 78.57,38.05Z"/>
  </g>
  <g transform="translate(138.02,26.31) scale(0.42633) translate(-0.00,-0.00)">
<path fill="currentColor" fill-rule="evenodd" d="M5.56,62.51C5.56,23.02 5.67,19.25 6.87,16.89C9.16,12.39 11.56,11.23 19.14,10.93L25.86,10.67L25.86,29.54L25.86,48.41L51.07,48.41C78.33,48.41 79.33,48.54 83.00,52.51L84.88,54.55L85.10,80.05L85.31,105.56L75.13,105.56L64.95,105.56L64.95,86.38L64.95,67.21L45.41,67.21L25.86,67.21L25.86,86.38L25.86,105.56L15.71,105.56L5.56,105.56L5.56,62.51ZM101.04,104.60C101.04,102.65 138.76,14.92 140.31,13.28C144.94,8.34 157.73,9.30 161.10,14.84C161.90,16.14 166.85,27.36 172.10,39.77C177.36,52.17 185.68,71.75 190.60,83.27C195.52,94.79 199.54,104.51 199.54,104.88C199.54,105.25 194.85,105.56 189.12,105.56L178.70,105.56L164.83,71.54C156.31,50.62 150.55,37.44 149.88,37.32C149.09,37.17 144.91,46.67 134.91,71.34L121.02,105.56L111.03,105.56C103.47,105.56 101.04,105.32 101.04,104.60ZM215.33,61.76C215.34,20.23 215.41,17.84 216.75,15.65C219.66,10.87 220.07,10.82 255.11,10.82L286.76,10.82L286.76,20.22L286.76,29.62L261.19,29.62L235.63,29.62L235.63,39.77L235.63,49.92L258.19,49.92L280.74,49.92L280.74,59.31L280.74,68.71L258.19,68.71L235.63,68.71L235.63,87.13L235.63,105.56L225.48,105.56L215.33,105.56L215.33,61.76Z"/>
<path fill="#f18e00" fill-rule="evenodd" d="M71.90,41.24C69.74,39.72 63.88,31.49 61.98,27.28C58.13,18.81 61.77,9.67 70.15,6.71C74.44,5.19 76.67,5.27 80.67,7.09C88.38,10.59 91.47,17.82 88.66,25.78C86.35,32.35 78.22,42.40 75.22,42.40C74.31,42.40 72.81,41.88 71.90,41.24ZM77.70,23.27C78.89,21.84 78.42,18.31 76.91,17.36C74.98,16.15 71.81,17.36 71.27,19.51C70.36,23.11 75.39,26.05 77.70,23.27Z"/>
  </g>
</svg>
